<?xml version="1.0" encoding="UTF-8" standalone="no"?>
<!-- Generator: Adobe Illustrator 16.0.4, SVG Export Plug-In . SVG Version: 6.00 Build 0)  -->

<svg
   xmlns:dc="http://purl.org/dc/elements/1.1/"
   xmlns:cc="http://creativecommons.org/ns#"
   xmlns:rdf="http://www.w3.org/1999/02/22-rdf-syntax-ns#"
   xmlns:svg="http://www.w3.org/2000/svg"
   xmlns="http://www.w3.org/2000/svg"
   xmlns:sodipodi="http://sodipodi.sourceforge.net/DTD/sodipodi-0.dtd"
   xmlns:inkscape="http://www.inkscape.org/namespaces/inkscape"
   version="1.1"
   id="Layer_1"
   x="0px"
   y="0px"
   width="300px"
   height="188px"
   viewBox="0 0 300 188"
   enable-background="new 0 0 300 188"
   xml:space="preserve"
   inkscape:version="0.48.2 r9819"
   sodipodi:docname="logo.svg"><metadata
   id="metadata3095"><rdf:RDF><cc:Work
       rdf:about=""><dc:format>image/svg+xml</dc:format><dc:type
         rdf:resource="http://purl.org/dc/dcmitype/StillImage" /><dc:title></dc:title></cc:Work></rdf:RDF></metadata><defs
   id="defs3093" /><sodipodi:namedview
   pagecolor="#ffffff"
   bordercolor="#666666"
   borderopacity="1"
   objecttolerance="10"
   gridtolerance="10"
   guidetolerance="10"
   inkscape:pageopacity="0"
   inkscape:pageshadow="2"
   inkscape:window-width="994"
   inkscape:window-height="820"
   id="namedview3091"
   showgrid="false"
   inkscape:zoom="4.0316872"
   inkscape:cx="335.00509"
   inkscape:cy="115.2693"
   inkscape:window-x="208"
   inkscape:window-y="7"
   inkscape:window-maximized="0"
   inkscape:current-layer="Layer_1" />
<g
   id="g3061">
	<path
   d="M118.432,143.537V89.456c0-3.639-0.167-7.209-0.494-10.604c-0.293-3.013-0.884-5.377-1.749-7.032   c-0.826-1.542-1.996-2.697-3.558-3.494c-1.171-0.6-3.519-1.313-8.04-1.313c-3.534,0-7.154,0.912-10.753,2.712   c-3.35,1.676-6.752,3.772-10.134,6.253c0.062,0.695,0.12,1.434,0.17,2.212c0.111,1.694,0.167,3.385,0.167,5.029v60.319H61.495   V89.456c0-3.743-0.168-7.354-0.496-10.721c-0.292-2.987-0.881-5.341-1.747-6.996c-0.822-1.531-1.98-2.664-3.525-3.436   c-1.18-0.59-3.539-1.292-8.072-1.292c-3.443,0-6.977,0.876-10.503,2.607c-3.338,1.636-6.709,3.692-10.049,6.129v67.789H4.555   V47.619h22.547v5.942c2.793-1.883,5.594-3.483,8.375-4.786c5.103-2.391,10.606-3.604,16.363-3.604   c6.687,0,12.498,1.463,17.274,4.345c3.428,2.071,6.267,4.735,8.468,7.954c4.899-3.801,9.508-6.687,13.738-8.598   c5.428-2.455,11.302-3.701,17.459-3.701c10.885,0,19.117,3.462,24.47,10.278c5.134,6.54,7.73,15.616,7.73,26.978v61.109H118.432z"
   id="path3063" />
	<path
   d="M196.257,145.51c-6.772,0-13.104-1.017-18.806-3.023c-5.838-2.049-10.925-5.214-15.108-9.398   c-4.22-4.16-7.529-9.476-9.817-15.782c-2.252-6.185-3.396-13.454-3.396-21.608c0-15.392,4.367-27.716,12.969-36.633   c8.639-8.954,20.132-13.497,34.158-13.497c5.398,0,10.771,0.771,15.965,2.287c5.076,1.48,9.803,3.324,14.05,5.472l2.11,1.071   v22.719h-5.962l-1.043-0.811c-4.224-3.283-8.613-5.84-13.06-7.589c-4.345-1.708-8.613-2.574-12.688-2.574   c-7.314,0-12.884,2.339-17.021,7.146c-4.23,4.917-6.374,12.455-6.374,22.408c0,9.66,2.102,17.079,6.251,22.054   c4.031,4.833,9.642,7.184,17.144,7.184c2.665,0,5.429-0.359,8.211-1.065c2.814-0.717,5.36-1.651,7.567-2.776   c2.031-1.043,3.962-2.154,5.729-3.31c1.779-1.162,3.186-2.158,4.181-2.965l1.06-0.858h6.006v22.622l-2.187,1.046   c-5.115,2.451-10.052,4.384-14.666,5.749C206.738,144.793,201.603,145.51,196.257,145.51z"
   id="path3065" />
	<path
   fill="#8B0025"
   d="M236.298,77.016V61.002l1.592-0.989c4.555-2.824,8.792-5.525,12.591-8.027   c3.742-2.465,6.778-4.63,9.028-6.44c7.196-5.659,9.938-8.563,10.979-10.011c1.273-1.774,1.918-4.262,1.918-7.394   c0-2.092-0.699-3.523-2.277-4.642c-1.866-1.325-4.545-2.003-7.955-2.003c-3.696,0-7.381,0.646-10.957,1.913   c-3.693,1.311-6.572,2.624-8.555,3.902l-0.835,0.54h-5.255V9.701l2.209-0.807c3.412-1.253,7.261-2.311,11.443-3.146   c4.225-0.844,8.504-1.275,12.709-1.275c9.06,0,16.143,2.093,21.052,6.209c5.08,4.269,7.657,9.866,7.657,16.63   c0,5.195-1.307,9.858-3.885,13.87c-2.462,3.831-6.397,7.843-12.046,12.26c-2.593,2.031-5.745,4.265-9.373,6.65   c-0.09,0.062-0.174,0.117-0.265,0.175h29.436v16.749H236.298z"
   id="path3067" />
	<g
   id="g3069">
		<path
   d="M21.59,175.441c-1.18,0.564-2.297,1.003-3.354,1.314c-1.061,0.315-2.185,0.471-3.376,0.471    c-1.517,0-2.911-0.222-4.175-0.666c-1.267-0.445-2.35-1.119-3.251-2.021c-0.916-0.905-1.626-2.046-2.127-3.425    c-0.501-1.376-0.751-2.987-0.751-4.83c0-3.437,0.941-6.131,2.827-8.085c1.887-1.959,4.379-2.933,7.477-2.933    c1.204,0,2.384,0.167,3.544,0.507c1.159,0.337,2.223,0.75,3.186,1.238v3.932h-0.188c-1.079-0.84-2.19-1.487-3.338-1.938    c-1.144-0.451-2.264-0.677-3.355-0.677c-2.006,0-3.587,0.674-4.747,2.021c-1.159,1.35-1.738,3.323-1.738,5.934    c0,2.53,0.565,4.479,1.702,5.836c1.133,1.361,2.728,2.042,4.783,2.042c0.715,0,1.442-0.094,2.181-0.282    c0.738-0.188,1.403-0.435,1.993-0.734c0.514-0.262,0.997-0.54,1.45-0.837c0.451-0.293,0.806-0.546,1.07-0.761h0.188V175.441z"
   id="path3071" />
		<path
   d="M37.238,152.236h-3.99v-3.667h3.99V152.236z M37.01,176.756h-3.534v-21.003h3.534V176.756z"
   id="path3073" />
		<path
   d="M69.487,155.753l-8.5,21.003h-3.554l-8.443-21.003h3.836l6.506,16.717l6.451-16.717H69.487z"
   id="path3075" />
		<path
   d="M85.226,152.236H81.24v-3.667h3.986V152.236z M84.999,176.756h-3.532v-21.003h3.532V176.756z"
   id="path3077" />
		<path
   d="M102.883,176.756H99.35v-29.255h3.534V176.756z"
   id="path3079" />
		<path
   d="M113.361,171.397l-5.304,12.317h-2.745l3.27-12.317H113.361z"
   id="path3081" />
		<path
   d="M157.142,152.236h-3.986v-3.667h3.986V152.236z M156.915,176.756h-3.535v-21.003h3.535V176.756z"
   id="path3083" />
		<path
   d="M188.789,176.756h-3.535v-11.959c0-0.963-0.054-1.868-0.17-2.716c-0.11-0.847-0.319-1.506-0.621-1.984    c-0.313-0.524-0.764-0.915-1.354-1.177c-0.59-0.253-1.352-0.384-2.293-0.384c-0.965,0-1.974,0.239-3.025,0.714    c-1.056,0.478-2.063,1.086-3.028,1.825v15.681h-3.535v-21.003h3.535v2.332c1.1-0.914,2.243-1.63,3.421-2.144    c1.181-0.515,2.39-0.769,3.63-0.769c2.269,0,4,0.682,5.19,2.046c1.191,1.368,1.786,3.335,1.786,5.905V176.756z"
   id="path3085" />
		<path
   d="M218.444,175.441c-1.179,0.564-2.3,1.003-3.356,1.314c-1.062,0.315-2.183,0.471-3.375,0.471    c-1.519,0-2.909-0.222-4.176-0.666c-1.265-0.445-2.35-1.119-3.251-2.021c-0.917-0.905-1.623-2.046-2.124-3.425    c-0.502-1.376-0.753-2.987-0.753-4.83c0-3.437,0.941-6.131,2.828-8.085c1.887-1.959,4.379-2.933,7.476-2.933    c1.203,0,2.383,0.167,3.541,0.507c1.161,0.337,2.225,0.75,3.19,1.238v3.932h-0.188c-1.077-0.84-2.192-1.487-3.34-1.938    c-1.145-0.451-2.264-0.677-3.354-0.677c-2.005,0-3.59,0.674-4.748,2.021c-1.16,1.35-1.741,3.323-1.741,5.934    c0,2.53,0.566,4.479,1.703,5.836c1.132,1.361,2.729,2.042,4.786,2.042c0.715,0,1.44-0.094,2.182-0.282    c0.739-0.188,1.403-0.435,1.991-0.734c0.513-0.262,0.996-0.54,1.449-0.837c0.448-0.293,0.809-0.546,1.071-0.761h0.188V175.441z"
   id="path3087" />
		<path
   d="M228.382,176.756h-4.492v-5.358h4.492V176.756z"
   id="path3089" />
	</g>
<path
   id="path3097"
   d="M236.298,77.016V61.002l1.592-0.989c4.555-2.824,8.792-5.525,12.591-8.027   c3.742-2.465,6.778-4.63,9.028-6.44c7.196-5.659,9.938-8.563,10.979-10.011c1.273-1.774,1.918-4.262,1.918-7.394   c0-2.092-0.699-3.523-2.277-4.642c-1.866-1.325-4.545-2.003-7.955-2.003c-3.696,0-7.381,0.646-10.957,1.913   c-3.693,1.311-6.572,2.624-8.555,3.902l-0.835,0.54h-5.255V9.701l2.209-0.807c3.412-1.253,7.261-2.311,11.443-3.146   c4.225-0.844,8.504-1.275,12.709-1.275c9.06,0,16.143,2.093,21.052,6.209c5.08,4.269,7.657,9.866,7.657,16.63   c0,5.195-1.307,9.858-3.885,13.87c-2.462,3.831-6.397,7.843-12.046,12.26c-2.593,2.031-5.745,4.265-9.373,6.65   c-0.09,0.062-0.174,0.117-0.265,0.175h29.436v16.749H236.298z"
   fill="#8B0025"
   style="fill:#80002d;fill-opacity:1" /></g>
</svg>